Coordinates
version=1
nRows=13
nColumns=36
inDegrees=yes

Units are S.I. units (second, meters, Newtons, ...)
If the header above contains a line with 'inDegrees', this indicates whether rotational values are in degrees (yes) or radians (no).

endheader
time	pelvis_tilt	pelvis_list	pelvis_rotation	pelvis_tx	pelvis_ty	pelvis_tz	hip_flexion_r	hip_adduction_r	hip_rotation_r	knee_angle_r	knee_angle_r_beta	ankle_angle_r	subtalar_angle_r	mtp_angle_r	hip_flexion_l	hip_adduction_l	hip_rotation_l	knee_angle_l	knee_angle_l_beta	ankle_angle_l	subtalar_angle_l	mtp_angle_l	lumbar_extension	lumbar_bending	lumbar_rotation	arm_flex_r	arm_add_r	arm_rot_r	elbow_flex_r	pro_sup_r	arm_flex_l	arm_add_l	arm_rot_l	elbow_flex_l	pro_sup_l
      0.64000000	    -11.62824218	      4.07356121	      3.23492598	     -0.78751613	      1.42025761	     -0.57439438	     10.63464006	     -4.37561097	     -9.06677634	     29.31224403	      0.51159517	    -24.32995195	     -5.68902325	     -3.63453424	     22.91682458	      3.08350697	     -2.99406215	     37.87701504	      0.66107862	    -27.03205153	    -15.85556166	     -3.63453424	     -3.01726284	     -3.26918870	     -7.82307323	     32.46304368	    -33.64128795	    -11.19919741	    112.89697061	     99.35282677	     14.81893534	    -32.32773409	    -13.03492915	    111.85626787	     96.26681728
      0.65000000	    -11.10029920	      3.95134627	      2.93558720	     -0.77621769	      1.42345663	     -0.57488299	     11.89728794	     -4.30605956	     -8.36984660	     32.04342957	      0.55926335	    -23.99222965	     -6.64319318	     -3.67117192	     22.34401030	      2.90623204	     -3.02494932	     36.62085990	      0.63915458	    -25.97827293	    -16.63323758	     -3.67117192	     -3.32274655	     -3.12442059	     -7.54750313	     31.63456790	    -34.76306234	    -12.71561287	    113.58557814	     99.27061719	     13.47128477	    -32.64707294	    -14.48883592	    113.01950151	     96.51617166
      0.66000000	    -10.67278515	      3.79475470	      2.72473986	     -0.76492026	      1.42563621	     -0.57522073	     13.06973607	     -4.08528122	     -7.64217894	     34.23073960	      0.59743911	    -22.72409368	     -7.60158461	     -3.71117784	     21.80397749	      2.66884097	     -3.17931630	     35.05141361	      0.61176257	    -25.45959530	    -17.12738336	     -3.71117784	     -3.57869824	     -2.98962806	     -7.42981892	     30.54504701	    -35.75531638	    -14.47341775	    114.31656306	     99.15139734	     11.86460104	    -32.95718304	    -16.25500998	    114.25122451	     96.74883027
      0.67000000	    -10.19738433	      3.63584786	      2.54874358	     -0.75378169	      1.42702757	     -0.57550464	     14.03955490	     -3.85670517	     -7.10797475	     35.86405906	      0.62594591	    -21.50809742	     -8.26638226	     -3.75473534	     21.12740863	      2.40421364	     -3.47652612	     33.17378999	      0.57899186	    -25.27069043	    -17.36173240	     -3.75473534	     -3.99237311	     -2.85588961	     -7.37885195	     29.33298899	    -36.77560246	    -16.27127327	    115.05263287	     98.99402562	     10.19819571	    -33.22843090	    -18.17184927	    115.49402203	     96.96322691
      0.68000000	     -9.65159820	      3.45508534	      2.40062885	     -0.74268860	      1.42766349	     -0.57592770	     14.76010780	     -3.67510821	     -6.91767373	     36.86388001	      0.64339608	    -20.90016726	     -8.76665632	     -3.79515261	     20.31049569	      2.14154500	     -3.77190084	     31.06270018	      0.54214639	    -25.23997737	    -17.31949691	     -3.79515261	     -4.49999505	     -2.65880189	     -7.39013767	     28.00943845	    -37.88331135	    -18.00669479	    115.71611955	     98.81808357	      8.54576581	    -33.49774007	    -20.10994631	    116.60766636	     97.13178488
      0.69000000	     -9.00911604	      3.29065699	      2.26582061	     -0.73152236	      1.42759657	     -0.57668127	     15.22014952	     -3.57604379	     -6.95149189	     37.30026228	      0.65101239	    -20.62691117	     -9.24826630	     -3.84758066	     19.30003855	      1.93417679	     -4.10866100	     28.71376988	      0.50114983	    -25.37076341	    -17.06981264	     -3.84758066	     -5.20886123	     -2.45919414	     -7.42889930	     26.53009882	    -38.94241543	    -19.96869179	    116.43250386	     98.56040110	      6.74251636	    -33.62150962	    -22.25736122	    117.77252310	     97.31887161
      0.70000000	     -8.34654914	      3.08307658	      2.12201233	     -0.72032993	      1.42667896	     -0.57756644	     15.44979698	     -3.44489075	     -7.12166174	     37.05180935	      0.64667607	    -20.40106634	     -9.61421858	     -3.91068756	     18.26894187	      1.66533238	     -4.55844014	     26.30957298	      0.45918867	    -25.51448352	    -16.59224019	     -3.91068756	     -5.95627111	     -2.20663137	     -7.45391194	     24.94647494	    -39.96806652	    -21.99745384	    117.04522907	     98.22591213	      4.94710950	    -33.73999653	    -24.44433742	    118.87235711	     97.50770831
      0.71000000	     -7.81861137	      2.82347619	      2.07687595	     -0.70921487	      1.42472034	     -0.57857393	     15.66014810	     -3.25205887	     -7.21977795	     36.32905610	      0.63406164	    -20.14696093	     -9.73776837	     -3.95647120	     17.42251782	      1.35643918	     -5.04621272	     23.89089560	      0.41697479	    -25.67954936	    -15.82317081	     -3.95647120	     -6.58882947	     -1.88762435	     -7.58889980	     23.06741871	    -41.09470732	    -24.03339473	    117.64216231	     97.96248335	      2.91737642	    -33.69419799	    -26.63070378	    120.02464547	     97.63519563
      0.72000000	     -7.21064567	      2.59004718	      2.07390941	     -0.69815928	      1.42187384	     -0.57969522	     15.64577635	     -3.19667710	     -7.63330589	     35.14864632	      0.61345961	    -19.94237213	     -9.54049685	     -4.03468746	     16.52283043	      1.09349792	     -5.58858326	     21.51153941	      0.37544719	    -25.90810834	    -14.89370505	     -4.03468746	     -7.37684128	     -1.58629582	     -7.73388932	     20.94692344	    -42.30071433	    -26.23288546	    118.21977949	     97.46828403	      0.77310530	    -33.79239250	    -28.83113150	    121.16009435	     97.73927445
      0.73000000	     -6.78581018	      2.34591171	      2.08517280	     -0.68736764	      1.41778329	     -0.58109399	     15.77533291	     -3.13541394	     -8.04176513	     33.69349685	      0.58806246	    -19.73821795	     -9.10229351	     -4.09327307	     15.88445889	      0.86971920	     -6.09023496	     19.21896610	      0.33543424	    -26.33639174	    -13.96829499	     -4.09327307	     -8.01696616	     -1.23997495	     -7.86805777	     18.53755334	    -43.66355850	    -28.44822832	    118.82393311	     97.05497613	     -1.49788836	    -33.71892865	    -31.10979448	    122.34999295	     97.78298880
      0.74000000	     -6.34200875	      2.16436279	      2.13880368	     -0.67657659	      1.41274471	     -0.58257026	     15.73066557	     -3.09096703	     -8.40176954	     31.83904165	      0.55569611	    -19.51272891	     -8.48917767	     -4.80481206	     15.28817957	      0.69895309	     -6.68915959	     17.05567276	      0.29767765	    -26.75541513	    -12.81663747	     -4.80481206	     -8.73108415	     -1.03144903	     -6.16840991	     12.10133771	    -45.78248798	    -34.80557358	    120.86401555	     92.26364864	     -1.00573465	    -33.75997242	    -30.04641516	    122.53068991	     97.84013991
      0.75000000	     -6.04857620	      1.99058681	      2.25968352	     -0.66603055	      1.40641499	     -0.58406247	     15.81005348	     -3.05913777	     -8.81357691	     29.80367208	      0.52017221	    -19.54695661	     -7.95241992	     -4.85582741	     14.97825580	      0.54995234	     -7.28475695	     15.11814889	      0.26386147	    -27.33151818	    -11.79772820	     -4.85582741	     -9.30283591	     -0.72832386	     -6.57494814	      9.33696655	    -46.91653875	    -37.07090141	    121.24374202	     92.09392837	     -3.84282644	    -33.74601915	    -32.75479009	    123.92405936	     97.82096545
      0.76000000	     -5.87903776	      1.79017032	      2.40347844	     -0.65561815	      1.39885291	     -0.58556229	     16.03836714	     -3.02689546	     -9.25850525	     27.70861670	      0.48360659	    -19.67101480	     -7.24017036	     -4.89418949	     14.87572425	      0.39329804	     -7.80328508	     13.34063797	      0.23283806	    -27.90979833	    -10.83144431	     -4.89418949	     -9.76884333	     -0.41347821	     -6.98597271	      6.30062137	    -48.01359906	    -39.44521946	    121.56738260	     91.94418118	     -6.86562921	    -33.67564150	    -35.46655807	    125.38288049	     97.78800544
